<?xml version="1.0" encoding="iso-8859-1"?>
<!-- Generator: Adobe Illustrator 18.1.1, SVG Export Plug-In . SVG Version: 6.00 Build 0)  -->
<svg version="1.1" id="Capa_1" xmlns="http://www.w3.org/2000/svg" xmlns:xlink="http://www.w3.org/1999/xlink" x="0px" y="0px"
	 viewBox="0 0 509 509" style="enable-background:new 0 0 509 509;" xml:space="preserve">
<g>
	<g>
		<g>
			<path style="fill:#010002;" d="M448.5,310c-4-4-9-6-15-6h-5l-63-114c-3.333-6-8.333-9-15-9h-191c-7.334,0-12.667,3-16,9l-62,114
				h-6c-6,0-11,2-15,6s-6,9-6,15v102c0,6,2,11,6,15s9,6,15,6h20v30c0,8.667,3,16,9,22s13.333,9,22,9h10c8.667,0,16-3,22-9
				s9-13.333,9-22v-30h174v30c0,8.667,3,16,9,22s13.333,9,22,9h10c8.667,0,16-3,22-9s9-13.333,9-22v-30h20c6,0,11-2,15-6s6-9,6-15
				V325C454.5,319,452.5,314,448.5,310z M129,378.5c-5,5-11,7.5-18,7.5s-13-2.5-18-7.5s-7.5-11-7.5-18s2.5-13,7.5-18s11-7.5,18-7.5
				s13,2.5,18,7.5s7.5,11,7.5,18S134,373.5,129,378.5z M131.5,304l42-83c2.667-6,7.667-9,15-9h133c6.667,0,11.333,3,14,9l42,83
				H131.5z M416,378.5c-5,5-11,7.5-18,7.5s-13-2.5-18-7.5s-7.5-11-7.5-18s2.5-13,7.5-18s11-7.5,18-7.5s13,2.5,18,7.5s7.5,11,7.5,18
				S421,373.5,416,378.5z"/>
		</g>
	</g>
</g>
<g>
</g>
<g>
</g>
<g>
</g>
<g>
</g>
<g>
</g>
<g>
</g>
<g>
</g>
<g>
</g>
<g>
</g>
<g>
</g>
<g>
</g>
<g>
</g>
<g>
</g>
<g>
</g>
<g>
</g>
</svg>
